<?xml version="1.0" standalone="no"?>
<!DOCTYPE svg PUBLIC "-//W3C//DTD SVG 20010904//EN"
 "http://www.w3.org/TR/2001/REC-SVG-20010904/DTD/svg10.dtd">
<svg version="1.0" xmlns="http://www.w3.org/2000/svg"
 width="359.000000pt" height="359.000000pt" viewBox="0 0 359.000000 359.000000"
 preserveAspectRatio="xMidYMid meet">
<metadata>
Created by potrace 1.14, written by Peter Selinger 2001-2017
</metadata>
<g transform="translate(0.000000,359.000000) scale(0.100000,-0.100000)"
fill="#000000" stroke="none">
<path d="M2720 3012 l0 -257 -947 -947 -948 -948 -255 -2 -255 -3 -3 -278 -2
-277 280 0 280 0 0 248 0 247 468 468 467 467 458 -458 457 -457 0 -258 0
-257 280 0 280 0 0 280 0 280 -248 0 -247 0 -465 465 -465 465 460 460 460
460 252 0 253 0 0 280 0 280 -280 0 -280 0 0 -258z m490 -22 l0 -200 -205 0
-205 0 0 200 0 200 205 0 205 0 0 -200z m-2410 -2410 l0 -200 -205 0 -205 0 0
200 0 200 205 0 205 0 0 -200z m2410 0 l0 -200 -205 0 -205 0 0 200 0 200 205
0 205 0 0 -200z"/>
</g>
</svg>
